<svg xmlns="http://www.w3.org/2000/svg" viewBox="0 0 1486.41 578.78"><defs><style>.cls-logo-1{fill:#1a73ae;}</style></defs><path class="cls-logo-1" d="M191.94 168.18v7.24c0 20.85-6.35 33.88-20.48 40.54v.58c17 6.66 23.65 21.72 23.65 43.15v16.51c0 31.27-16.44 48.07-48.17 48.07H97V121.55h47.88c32.92 0 47.06 15.35 47.06 46.63zm-63.17-17.67v53.58h12.4c11.83 0 19-5.22 19-21.43v-11.3c0-14.48-4.9-20.85-16.15-20.85zm0 82.54v62.26h18.17c10.67 0 16.44-4.92 16.44-20v-17.65c0-18.82-6.06-24.61-20.48-24.61zM214.15 121.55h31.73v173.76h52.21v29h-83.94zM342.22 121.55v156.38c0 14.48 6.35 19.7 16.44 19.7s16.45-5.22 16.45-19.7V121.55h30v154.36c0 32.43-16.15 51-47.3 51s-47.31-18.54-47.31-51V121.55zM458.47 207H502v29h-43.53v59.37h54.81v29h-86.54V121.55h86.54v29h-54.81zM577.6 121.55h31.73v173.76h52.21v29H577.6zM675.39 121.55h31.73v202.72h-31.73zM818.17 121.55v28.38l-60.29 145.38h60.29v29h-92.88v-28.42l60.28-145.38h-57.4v-29zM939.61 324.27h-32l-5.48-36.78h-38.96l-5.48 36.78h-29.14l32.31-202.72h46.44zM867.21 260h30.57l-15-102.52h-.57zM1020.67 324.27c-1.74-5.21-2.89-8.4-2.89-24.91v-31.85c0-18.83-6.35-25.78-20.77-25.78h-11v82.54h-31.69V121.55h47.88c32.89 0 47 15.35 47 46.63v15.92c0 20.86-6.63 34.18-20.77 40.84v.58c15.87 6.66 21.06 21.72 21.06 42.86v31.27c0 9.85.29 17.09 3.46 24.62zm-34.62-173.76v62.26h12.4c11.83 0 19-5.21 19-21.43v-20c0-14.48-4.9-20.85-16.15-20.85zM1070.28 121.55h50.19c31.73 0 47.31 17.67 47.31 50.1v102.52c0 32.43-15.58 50.1-47.31 50.1h-50.19zm31.73 29v144.8h17.88c10.1 0 16.16-5.21 16.16-19.69V170.2c0-14.48-6.06-19.69-16.16-19.69z" transform="translate(-95.43 -2.29)"/><path class="cls-logo-1" d="M0 366.65h1071.09v6H0z"/><path class="cls-logo-1" d="M147.67 514h-15l-2.57-17.22h-18.36L109.16 514H95.47l15.19-94.91h21.83zm-34-30.1H128l-7-48h-.27zM172.89 419.05v73.22c0 6.78 3 9.22 7.73 9.22s7.73-2.44 7.73-9.22v-73.22h14.1v72.27c0 15.18-7.59 23.86-22.24 23.86S158 506.5 158 491.32v-72.27zM236.62 418c14.51 0 22 8.68 22 23.87v3h-14.1v-3.93c0-6.78-2.72-9.36-7.46-9.36s-7.46 2.58-7.46 9.36 3 12.07 12.75 20.61c12.47 11 16.4 18.84 16.4 29.69 0 15.19-7.59 23.87-22.23 23.87s-22.24-8.68-22.24-23.87v-5.83h14.1v6.78c0 6.78 3 9.22 7.73 9.22s7.73-2.44 7.73-9.22-3-12.07-12.75-20.61c-12.47-11-16.4-18.85-16.4-29.69-.03-15.25 7.42-23.89 21.93-23.89zM267 419.05h46.1v13.56h-15.6V514h-14.91v-81.39H267zM354.86 514c-.82-2.44-1.36-3.93-1.36-11.66v-14.95c0-8.82-3-12.07-9.76-12.07h-5.15V514h-14.92v-94.95h22.51c15.46 0 22.1 7.18 22.1 21.83v7.46c0 9.76-3.12 16-9.76 19.11v.27c7.45 3.12 9.9 10.17 9.9 20.07v14.65c0 4.61.13 8 1.62 11.52zm-16.27-81.35v29.15h5.83c5.56 0 8.94-2.44 8.94-10v-9.36c0-6.78-2.3-9.76-7.59-9.76zM430.38 514h-15.05l-2.58-17.22h-18.3L391.87 514h-13.69l15.18-94.91h21.83zm-34-30.1h14.37l-7.05-48h-.27zM441.37 419.05h14.91v81.35h24.54V514h-39.45zM491.4 419.05h14.91V514H491.4zM569.5 514h-15l-2.58-17.22h-18.3L531 514h-13.7l15.19-94.91h21.83zm-34-30.1h14.38l-7.05-48h-.28zM594 445.22h-.27V514h-13.39v-94.95h18.72l15.05 56.81h.27v-56.81h13.29V514h-15.33zM687.6 418c14.5 0 22 8.68 22 23.87v3h-14.1v-3.93c0-6.78-2.71-9.36-7.46-9.36s-7.45 2.58-7.45 9.36 3 12.07 12.74 20.61c12.48 11 16.41 18.84 16.41 29.69 0 15.19-7.6 23.87-22.24 23.87s-22.24-8.68-22.24-23.87v-5.83h14.11v6.78c0 6.78 3 9.22 7.72 9.22s7.73-2.44 7.73-9.22-3-12.07-12.74-20.61c-12.48-11-16.41-18.85-16.41-29.69-.04-15.25 7.42-23.89 21.93-23.89zM736.41 419.05v73.22c0 6.78 3 9.22 7.73 9.22s7.73-2.44 7.73-9.22v-73.22H766v72.27c0 15.18-7.59 23.86-22.24 23.86s-22.23-8.68-22.23-23.86v-72.27zM793.76 445.22h-.27V514h-13.42v-94.95h18.71l15.05 56.81h.27v-56.81h13.29V514h-15.32zM862.24 418c14.51 0 22 8.68 22 23.87v3H870.1v-3.93c0-6.78-2.71-9.36-7.46-9.36s-7.45 2.58-7.45 9.36 3 12.07 12.74 20.61c12.48 11 16.41 18.84 16.41 29.69 0 15.19-7.59 23.87-22.24 23.87s-22.23-8.68-22.23-23.87v-5.83H854v6.78c0 6.78 3 9.22 7.73 9.22s7.72-2.44 7.72-9.22-3-12.07-12.74-20.61c-12.48-11-16.41-18.85-16.41-29.69-.03-15.25 7.43-23.89 21.94-23.89zM940.07 478.57v12.61c0 15.19-7.6 23.87-22.24 23.87s-22.24-8.68-22.24-23.87v-49.35c0-15.19 7.6-23.87 22.24-23.87s22.24 8.68 22.24 23.87v9.22H926v-10.17c0-6.78-3-9.36-7.73-9.36s-7.73 2.58-7.73 9.36v51.25c0 6.78 3 9.22 7.73 9.22s7.73-2.44 7.73-9.22v-13.56zM984.41 514c-.82-2.44-1.36-3.93-1.36-11.66v-14.95c0-8.82-3-12.07-9.76-12.07h-5.16V514h-14.91v-94.95h22.51c15.45 0 22.1 7.18 22.1 21.83v7.46c0 9.76-3.12 16-9.76 19.11v.27c7.45 3.12 9.89 10.17 9.89 20.07v14.65c0 4.61.14 8 1.63 11.52zm-16.28-81.35v29.15H974c5.56 0 8.95-2.44 8.95-10v-9.36c0-6.78-2.3-9.76-7.59-9.76zM1026.71 459.05h20.47v13.56h-20.47v27.79h25.76V514h-40.68v-94.95h40.68v13.56h-25.76zM1080.54 459.05H1101v13.56h-20.47v27.79h25.76V514h-40.68v-94.95h40.68v13.56h-25.76zM1133.15 445.22h-.27V514h-13.42v-94.95h18.71l15 56.81h.27v-56.81h13.29V514h-15.33zM1191.07 111.13c.68 0 1.33 0 1.92-.07a4.59 4.59 0 001.62-.38 2.52 2.52 0 001.14-1 3.33 3.33 0 00.42-1.79 2.52 2.52 0 00-1.35-2.45 4.45 4.45 0 00-1.38-.41 9.86 9.86 0 00-1.53-.12h-4v6.17zm1.33-8.6a7.9 7.9 0 015.11 1.37 5.07 5.07 0 011.68 4.17 4.72 4.72 0 01-1.47 3.83 6.5 6.5 0 01-3.64 1.44l5.55 8.56h-3.25l-5.27-8.33h-3.19v8.33h-3v-19.37zm-13.68 15.27a14 14 0 002.88 4.5 13.2 13.2 0 004.35 3 13.39 13.39 0 005.42 1.09 13.34 13.34 0 009.7-4.08 13.49 13.49 0 002.87-4.5 15 15 0 001-5.65 14.46 14.46 0 00-1-5.54 13.11 13.11 0 00-2.87-4.46 13.9 13.9 0 00-4.32-3 13.4 13.4 0 00-5.38-1.08 13.55 13.55 0 00-5.42 1.08 13.8 13.8 0 00-4.35 3 13.6 13.6 0 00-2.88 4.46 14.45 14.45 0 00-1 5.54 14.94 14.94 0 001 5.65m-2.72-12.18a16.77 16.77 0 0115.38-10 16.37 16.37 0 016.44 1.27 16.4 16.4 0 018.87 8.71 16.07 16.07 0 011.32 6.52 16.41 16.41 0 01-1.32 6.62 17 17 0 01-3.59 5.28 16.42 16.42 0 01-5.28 3.49 17.37 17.37 0 01-12.89 0 16.34 16.34 0 01-5.31-3.49 16.71 16.71 0 01-3.62-5.28 16.25 16.25 0 01-1.33-6.62 15.91 15.91 0 011.33-6.52M1363.1 250.73a11.75 11.75 0 011.72 6.49c0 6.58-1 20.67-9 31.92-9.51 13.33-15.6 22.05-16.69 29.45a1 1 0 01-1.84.57c-3.12-4.7-9.47-14.3-9.39-14.39a16 16 0 00-2.37-3.76 5.18 5.18 0 010-6.73c2.28-2.7 5.26-6.28 7.65-9.3 4.53-5.71-3.31-15-9.83-7.39s-4.94 10.52-8.27 16.58c-4.48 8.15-5.11-3.21-7.84-7.91-2.92-5-8.9-11.4-14.23-4.83-5 6.17 5.71 11.3 9 14l.1.08c3.13 2.55.43 7.92-3.53 7-2.94-.66-6.59-1.56-10.28-2.67-8.51-2.54-15 3.69-11.31 9.23s9.57 4.94 13.69 3.21 8.65-1.7 7.32 1.93-11 7-19.17 12.24-4.67 13.24.12 13.25 13.44-7.7 16.51-11.83 15.71-18.89 17-14.59a32.43 32.43 0 01.78 6.81s3.48 34.83 6.63 39.8 7.91 17.44 23.18 4.44 15.12-28.36 17.53-26.9 7.87 72.39-4.71 85.71c0 0-9.62 3.34-16.41-15.61-1.68-4.69-4.19-14.1-9.69-17.22 0 0-4.94-3.13-13.25 11s-16.45 17.67-14.91 10.16 7.56-18.22.78-21.63c-5.66-2.85-6.5 11.19-5.8 13.65s-.91 5.56-2.85 3.8c0 0-3-11.39-11-14.81s-6.57 6.78.84 11.27c5.41 3.27 8.15 9.59 5.59 10.65s-13.6-2.78-18.83-3.26c-6.22-.57-11.86 10.45-.78 9.42 0 0 11.52-3.2 19.37.1s2.73 9.51.31 11.24-14 13.62-6.89 15.89 7.91-5.38 10-9.33 6.81-9.37 8.38-9.76c3.28-.82 15-5.76 20-12.3s8-1.86 10.59 9.62 14.74 31.12 11.8 39.72c-1.72 5-9 13.54-11.49 17a5.4 5.4 0 01-2.7 2c-1.32.43-2.69.86-4.13 1.27a5 5 0 01-5.33-1.71 25.76 25.76 0 00-8.23-6.75l-.32-.26-.34-.25a63.39 63.39 0 00-17.36-8c-39.52-10.3-72.76 8.3-74.48 10.11s-20.75 13.29 16.29 38.95c33.71 23.35 64.92 19.39 74.53 15.67.16-.06.28-.14.44-.19 3.64-1.16 11.36-6.12 19.33-16.63a34 34 0 017.79-3.63s13.1-3.75 40.52-.23 35.34-23.09 52.42-21.47 15.52 2.86 11.24 8.56-14.31 23.62-12 39.42c0 0-3.78 11.67-10.42 18.56s-2.58 18.5 5.41 9.38 5.76-18.32 9.3-20.1 8.8-1.65 9.37 9.6-3.34 21.1 9.3 24c0 0 8.2-2 3.27-12.85s-6.21-16.86-3.46-18.68 8.93.17 14.33 3.45 18.13 5.31 18.22-1.62-8.58-9.56-14-9.37-15.28-.53-14.74-4.13 2.47-6.79 7.71-8 13.44-3.21 12.37-8.22-9.72-6.32-16.55.89-14 8.12-12.83 3.56 22.77-32.7 25.6-42.95c2.76-10 1.26-14.94-5.78-14.85s-42.11 8.52-48.18.92-.57-23.46 4.18-36.73 21.29-91.38 9.93-114c0 0 33.84 3.13 41.29-14.6s-18.13-59.68-17.62-64.6.23-11.21 10.05-4.39 19.33 18.26 22.89 11.69-1.82-8.52-10.81-12.66-7.87-8.69-3.21-8.92 24.36 3.84 26.77-6.91-19.57-2.26-21.64-.89-10.06 3.06-9.24-1.68 4.51-9.48 11.49-19.65 1.3-12.3-.81-13.57-9.08 2.78-11.08 14.22-11.07 21.66-14.39 18.34-7.23-5.69-6.65-12.76-1.9-13.8-5.69-15.66-9.69 8.53-3 17.82 6.52 17 3.19 19.81-10.83 11.77-5.77 18.33.64 48.55-4.81 42.63-14.28-20.14-22.25-32c-6.15-9.18-105-118.52-14.79-149.78 33-11.44 91.42 24.87 136.47-7.62 25.07-18.09 42.26-71.17 48.94-91.72a1.26 1.26 0 00-2.33-1c-10.1 21.16-23.38 60.45-51.5 76.38-44.1 25-121-20.17-170.57 9.65-53.73 32.51-39.86 93.08 5.84 161.81z" transform="translate(-95.43 -2.29)"/></svg>