<?xml version="1.0" encoding="UTF-8" standalone="no"?>
<!-- Created with Inkscape (http://www.inkscape.org/) -->
<svg
   xmlns:svg="http://www.w3.org/2000/svg"
   xmlns="http://www.w3.org/2000/svg"
   version="1.0"
   width="1600"
   height="220"
   id="svg2">
  <defs
     id="defs5" />
  <path
     d="M 97.648259,193.0918 C 62.015894,187.55976 37.708633,163.86899 31.573229,128.69262 C 29.384039,116.14125 30.08083,95.616132 33.083093,84.217152 C 40.416732,56.372822 59.712904,37.063951 87.648254,29.616061 C 98.514289,26.719041 120.06755,26.453251 131.64825,29.073451 C 157.0762,34.826661 173.68624,51.050282 180.08539,76.383762 C 181.21996,80.875402 182.14825,85.721042 182.14825,87.151862 L 182.14825,89.753352 L 158.57866,89.485252 L 135.00907,89.217152 L 133.26024,84.049602 C 130.78244,76.728052 127.01576,72.288682 120.63099,69.164902 C 115.74751,66.775632 114.248,66.512872 107.87268,66.929202 C 99.133359,67.499912 93.769889,70.004712 88.763704,75.853312 C 82.358064,83.336862 79.148254,94.808132 79.148254,110.21715 C 79.148254,127.31887 82.646464,138.36305 90.552044,146.22003 C 96.337609,151.97002 100.85698,153.72842 109.76428,153.69518 C 121.24175,153.65234 129.11996,147.24517 133.1655,134.66349 L 135.39905,127.71714 L 159.27365,127.71714 L 183.14825,127.71714 L 183.14825,131.05718 C 183.14825,136.33456 179.42855,149.65225 176.11784,156.22827 C 167.75526,172.83871 152.15611,185.31693 132.97688,190.73801 C 125.74052,192.7834 104.69381,194.18565 97.648259,193.0918 z M 1064.9467,192.63721 C 1037.8657,188.66621 1015.8791,171.85643 1005.3644,147.08362 C 1000.1673,134.83928 998.63596,126.07618 998.74756,109.21715 C 998.86236,91.876412 1000.646,83.463092 1007.0155,70.217152 C 1017.0272,49.397142 1033.8449,35.629271 1056.6483,29.584971 C 1067.4434,26.723621 1087.2227,26.473861 1098.6483,29.054611 C 1109.4896,31.503381 1125.2103,39.266572 1132.4082,45.725862 C 1149.4013,60.975332 1157.9049,80.167752 1158.8933,105.50172 C 1159.6431,124.7216 1157.0085,138.19664 1149.6699,152.67571 C 1134.7538,182.1051 1101.1649,197.94803 1064.9467,192.63721 z M 1090.6483,151.35889 C 1103.9211,145.15065 1110.4923,131.06752 1110.3117,109.21715 C 1110.1807,93.374692 1106.0694,81.492372 1098.2857,74.460272 C 1092.3539,69.101252 1088.4547,67.446972 1080.5454,66.933832 C 1074.3549,66.532212 1072.6512,66.828072 1067.2836,69.236942 C 1053.1786,75.566882 1046.401,90.757272 1047.4377,113.71715 C 1048.3691,134.3462 1055.7397,147.59527 1068.8963,152.29039 C 1075.0464,154.48514 1084.8634,154.06474 1090.6483,151.35889 z M 188.14825,188.76738 C 188.14825,188.24502 193.58201,173.05752 200.22327,155.01738 C 223.51364,91.752142 241.07046,44.157022 243.49283,37.717152 L 245.93782,31.217151 L 269.92553,30.949641 L 293.91324,30.682131 L 297.48021,40.449642 C 328.28211,124.7951 351.14825,187.98141 351.14825,188.75125 C 351.14825,189.34663 341.57494,189.71714 326.19119,189.71714 L 301.23414,189.71714 L 298.13515,179.46714 C 296.43071,173.82964 294.84754,168.64689 294.61699,167.94992 C 294.29018,166.96196 288.63213,166.74158 268.94243,166.94992 L 243.68706,167.21714 L 240.16766,178.46432 L 236.64825,189.71149 L 212.39825,189.71432 C 197.75148,189.71602 188.14825,189.34103 188.14825,188.76738 z M 283.78679,130.41321 C 281.0802,119.92125 270.52542,84.738522 270.08161,84.729132 C 269.19516,84.710392 254.82822,131.38986 255.423,132.35627 C 255.71441,132.82975 262.34294,133.08037 270.15307,132.91321 C 284.21584,132.61221 284.34782,132.58801 283.78679,130.41321 z M 365.16018,110.21715 L 365.19484,30.717151 L 389.67155,30.717151 L 414.14825,30.717151 L 414.14825,89.717152 C 414.14825,136.23732 414.41265,148.72236 415.39825,148.74181 C 416.08575,148.75538 432.06075,148.74452 450.89825,148.71769 L 485.14825,148.6689 L 485.14825,169.19302 L 485.14825,189.71714 L 425.13688,189.71714 L 365.12551,189.71714 L 365.16018,110.21715 z M 505.14825,170.74685 L 505.14825,151.77655 L 541.99002,111.99686 L 578.83179,72.217152 L 543.95632,71.954322 L 509.08085,71.691492 L 509.1892,51.204322 L 509.29756,30.717151 L 576.7229,30.717151 L 644.14825,30.717151 L 644.14825,48.505182 L 644.14825,66.293202 L 607.2018,107.22539 C 586.88125,129.73808 570.39685,148.29907 570.5698,148.47202 C 570.74275,148.64498 588.15616,148.88338 609.26626,149.00181 L 647.64825,149.21714 L 647.91896,169.46714 L 648.18966,189.71714 L 576.66896,189.71714 L 505.14825,189.71714 L 505.14825,170.74685 z M 671.82195,189.05751 C 671.45141,188.68697 671.14825,152.90881 671.14825,109.55048 L 671.14825,30.717151 L 737.14825,30.717151 L 803.14825,30.717151 L 803.14825,51.217152 L 803.14825,71.717152 L 761.61204,71.717152 L 720.07583,71.717152 L 720.36204,81.467152 L 720.64825,91.217152 L 758.42027,91.479202 L 796.19229,91.741242 L 795.92027,110.4792 L 795.64825,129.21714 L 757.89825,129.47917 L 720.14825,129.74119 L 720.14825,139.22917 L 720.14825,148.71714 L 762.6292,148.71714 L 805.11015,148.71714 L 805.66375,150.96714 C 805.96823,152.20464 806.0893,161.31714 805.9328,171.21714 L 805.64825,189.21714 L 739.07195,189.47417 C 702.45498,189.61554 672.19248,189.42804 671.82195,189.05751 z M 834.14825,110.29687 L 834.14825,30.717151 L 878.39825,30.752041 C 925.58058,30.789241 932.72088,31.340371 944.03944,35.818641 C 972.3682,47.027082 987.7278,76.366572 985.8674,115.71715 C 985.1637,130.60228 982.9836,140.01358 977.5606,151.57694 C 969.379,169.0226 954.0361,181.09058 932.64825,186.90289 C 925.1097,188.95155 922.03816,189.10001 879.39825,189.47676 L 834.14825,189.87657 L 834.14825,110.29687 z M 919.69494,145.19938 C 926.93553,141.49357 932.13377,135.00065 934.76905,126.37096 C 937.39423,117.77429 937.38117,101.14135 934.74379,94.217152 C 928.50803,77.845732 917.81685,71.717152 895.49302,71.717152 L 883.14825,71.717152 L 883.14825,110.3069 L 883.14825,148.89664 L 898.47348,148.55689 C 913.23142,148.22972 914.01696,148.10543 919.69494,145.19938 z M 1174.815,189.05047 C 1174.4483,188.68381 1174.1483,152.90881 1174.1483,109.55048 L 1174.1483,30.717151 L 1199.4377,30.717151 L 1224.7272,30.717151 L 1244.1877,66.393422 C 1254.891,86.015372 1265.3318,105.25287 1267.3895,109.14342 C 1269.4472,113.03397 1271.1486,115.76715 1271.1705,115.21715 C 1271.1924,114.66715 1271.1828,95.429652 1271.1492,72.467152 L 1271.088,30.717151 L 1294.6182,30.717151 L 1318.1483,30.717151 L 1318.1483,110.23493 L 1318.1483,189.7527 L 1293.9833,189.48492 L 1269.8184,189.21714 L 1254.4059,161.71714 C 1245.9291,146.59214 1235.0909,127.30988 1230.3209,118.86769 L 1221.6483,103.51822 L 1221.3877,146.61768 L 1221.1271,189.71714 L 1198.3043,189.71714 C 1185.7519,189.71714 1175.1816,189.41714 1174.815,189.05047 z M 1348.1483,110.21715 L 1348.1483,30.717151 L 1372.6483,30.717151 L 1397.1483,30.717151 L 1397.1483,110.21715 L 1397.1483,189.71714 L 1372.6483,189.71714 L 1348.1483,189.71714 L 1348.1483,110.21715 z M 1410.1483,188.72815 C 1410.1483,188.1842 1415.7624,172.5467 1422.624,153.97815 C 1429.4856,135.40959 1442.4738,100.19215 1451.4867,75.717152 L 1467.8737,31.217151 L 1491.8973,30.949631 C 1514.0852,30.702551 1515.9734,30.817171 1516.6082,32.449631 C 1520.4457,42.317682 1573.1483,187.99088 1573.1483,188.72982 C 1573.1483,189.35319 1563.9549,189.71714 1548.2088,189.71714 L 1523.2693,189.71714 L 1520.6542,180.96714 C 1519.2158,176.15464 1517.6886,171.09214 1517.2603,169.71714 L 1516.4816,167.21714 L 1491.0907,167.21714 L 1465.6998,167.21714 L 1462.2458,178.46714 L 1458.7918,189.71714 L 1434.4701,189.71714 C 1419.1026,189.71714 1410.1483,189.35303 1410.1483,188.72815 z M 1500.0857,110.59068 C 1496.6672,98.835238 1493.6553,88.204652 1493.3927,86.967152 C 1493.13,85.729652 1492.6187,84.717152 1492.2563,84.717152 C 1491.6611,84.717152 1477.0829,130.22444 1477.1289,131.93892 C 1477.1529,132.83217 1504.3318,133.45708 1505.4748,132.59067 C 1505.9293,132.24611 1503.5043,122.34612 1500.0857,110.59068 z"
     id="path2384"
     style="fill:#000000" />
</svg>
